Input #0, mov,mp4,m4a,3gp,3g2,mj2, from '/home/hbattu/projects/huberman-gpt/huberman-audio/mp3/tmplyhsrw4m.mp4':
  Metadata:
    major_brand     : dash
    minor_version   : 0
    compatible_brands: iso6mp41
    creation_time   : 2022-08-28T21:07:06.000000Z
  Duration: 01:55:34.92, start: 0.000000, bitrate: 129 kb/s
    Stream #0:0(eng): Audio: aac (LC) (mp4a / 0x6134706D), 44100 Hz, stereo, fltp, 0 kb/s (default)
    Metadata:
      creation_time   : 2022-08-28T21:07:06.000000Z
      handler_name    : ISO Media file produced by Google Inc.
Stream mapping:
  Stream #0:0 -> #0:0 (aac (native) -> mp3 (libmp3lame))
Press [q] to stop, [?] for help
[graph_0_in_0_0 @ 0x55cd523c53c0] tb:1/44100 samplefmt:fltp samplerate:44100 chlayout:0x3
Output #0, mp3, to '../huberman-audio/mp3/uxZFl4BDOGk.mp3':
  Metadata:
    major_brand     : dash
    minor_version   : 0
    compatible_brands: iso6mp41
    TSSE            : Lavf58.29.100
    Stream #0:0(eng): Audio: mp3 (libmp3lame), 44100 Hz, stereo, fltp, delay 1105 (default)
    Metadata:
      creation_time   : 2022-08-28T21:07:06.000000Z
      handler_name    : ISO Media file produced by Google Inc.
      encoder         : Lavc58.54.100 libmp3lame
No more output streams to write to, finishing.
size=  108359kB time=01:55:34.93 bitrate= 128.0kbits/s speed=95.7x    
[AVIOContext @ 0x55cd522b6900] Statistics: 0 seeks, 145 writeouts
video:0kB audio:108359kB subtitle:0kB other streams:0kB global headers:0kB muxing overhead: 0.000312%
Input file #0 (/home/hbattu/projects/huberman-gpt/huberman-audio/mp3/tmplyhsrw4m.mp4):
  Input stream #0:0 (audio): 298662 packets read (110958689 bytes); 298662 frames decoded (305829888 samples); 
  Total: 298662 packets (110958689 bytes) demuxed
Output file #0 (../huberman-audio/mp3/uxZFl4BDOGk.mp3):
  Output stream #0:0 (audio): 265478 frames encoded (305829888 samples); 265479 packets muxed (110959386 bytes); 
  Total: 265479 packets (110959386 bytes) muxed
[AVIOContext @ 0x55cd522e0740] Statistics: 2 seeks, 425 writeouts
[AVIOContext @ 0x55cd522bf880] Statistics: 112234621 bytes read, 0 seeks
